<mxfile host="app.diagrams.net" modified="2023-05-04T15:44:01.352Z" agent="Mozilla/5.0 (Windows NT 10.0; Win64; x64) AppleWebKit/537.36 (KHTML, like Gecko) Chrome/112.0.0.0 Safari/537.36" etag="3l1C4Lt2ZOQFWYCk1HKs" version="21.2.7" type="github">
  <diagram name="第 1 页" id="X06dDtRYvv0daKgZY_Sl">
    <mxGraphModel dx="2074" dy="1148" grid="1" gridSize="10" guides="1" tooltips="1" connect="1" arrows="1" fold="1" page="1" pageScale="1" pageWidth="827" pageHeight="1169" math="0" shadow="0">
      <root>
        <mxCell id="0" />
        <mxCell id="1" parent="0" />
        <mxCell id="DqOA63uAwXFSG6KGImlB-3" style="edgeStyle=none;orthogonalLoop=1;jettySize=auto;html=1;sourcePerimeterSpacing=5;endArrow=classic;endFill=1;targetPerimeterSpacing=5;startArrow=classic;startFill=1;curved=1;" edge="1" parent="1">
          <mxGeometry relative="1" as="geometry">
            <mxPoint x="730" y="260" as="sourcePoint" />
            <mxPoint x="950" y="210" as="targetPoint" />
            <Array as="points">
              <mxPoint x="860" y="260" />
            </Array>
          </mxGeometry>
        </mxCell>
        <mxCell id="DqOA63uAwXFSG6KGImlB-4" style="edgeStyle=none;rounded=0;orthogonalLoop=1;jettySize=auto;html=1;sourcePerimeterSpacing=5;endArrow=classic;endFill=1;targetPerimeterSpacing=5;startArrow=classic;startFill=1;dashed=1;" edge="1" parent="1">
          <mxGeometry relative="1" as="geometry">
            <mxPoint x="730" y="280" as="sourcePoint" />
            <mxPoint x="960" y="280" as="targetPoint" />
          </mxGeometry>
        </mxCell>
        <mxCell id="DqOA63uAwXFSG6KGImlB-5" style="edgeStyle=none;orthogonalLoop=1;jettySize=auto;html=1;sourcePerimeterSpacing=5;endArrow=classic;endFill=1;targetPerimeterSpacing=5;startArrow=classic;startFill=1;curved=1;" edge="1" parent="1">
          <mxGeometry relative="1" as="geometry">
            <mxPoint x="730" y="290" as="sourcePoint" />
            <mxPoint x="960" y="340" as="targetPoint" />
            <Array as="points">
              <mxPoint x="730" y="290" />
              <mxPoint x="870" y="290" />
            </Array>
          </mxGeometry>
        </mxCell>
        <mxCell id="DqOA63uAwXFSG6KGImlB-7" style="edgeStyle=none;rounded=0;orthogonalLoop=1;jettySize=auto;html=1;sourcePerimeterSpacing=5;endArrow=classic;endFill=1;targetPerimeterSpacing=5;startArrow=none;startFill=0;" edge="1" parent="1">
          <mxGeometry relative="1" as="geometry">
            <mxPoint x="556" y="266.37" as="sourcePoint" />
            <mxPoint x="675.1288836816689" y="267.6389484563741" as="targetPoint" />
          </mxGeometry>
        </mxCell>
        <mxCell id="DqOA63uAwXFSG6KGImlB-8" value="" style="image;aspect=fixed;perimeter=ellipsePerimeter;html=1;align=center;shadow=0;dashed=0;spacingTop=3;image=img/lib/active_directory/domain_controller.svg;" vertex="1" parent="1">
          <mxGeometry x="690" y="250" width="35" height="50" as="geometry" />
        </mxCell>
        <mxCell id="DqOA63uAwXFSG6KGImlB-9" value="" style="image;sketch=0;aspect=fixed;html=1;points=[];align=center;fontSize=12;image=img/lib/mscae/Media_Encoding.svg;" vertex="1" parent="1">
          <mxGeometry x="534.4000000000001" y="280" width="17.2" height="20" as="geometry" />
        </mxCell>
        <mxCell id="DqOA63uAwXFSG6KGImlB-10" value="" style="shape=image;verticalLabelPosition=bottom;verticalAlign=top;imageAspect=0;aspect=fixed;image=data:image/svg+xml,PHN2ZyB4bWxucz0iaHR0cDovL3d3dy53My5vcmcvMjAwMC9zdmciIHZlcnNpb249IjEiIHZpZXdCb3g9IjAgMCA0OCA0OCIgZW5hYmxlLWJhY2tncm91bmQ9Im5ldyAwIDAgNDggNDgiPiYjeGE7ICAgIDxwYXRoIGZpbGw9IiM1NDZFN0EiIGQ9Ik00NCwzMEg0VjExYzAtMi4yLDEuOC00LDQtNGgzMmMyLjIsMCw0LDEuOCw0LDRWMzB6Ii8+JiN4YTsgICAgPHBhdGggZmlsbD0iIzY0QjVGNiIgZD0iTTQwLDI3SDhjLTAuNiwwLTEtMC40LTEtMVYxMWMwLTAuNiwwLjQtMSwxLTFoMzJjMC42LDAsMSwwLjQsMSwxdjE1QzQxLDI2LjYsNDAuNiwyNyw0MCwyN3oiLz4mI3hhOyAgICA8cGF0aCBmaWxsPSIjNzg5MDlDIiBkPSJNNDAsNDFIOGMtMi4yLDAtNC0xLjgtNC00di03aDQwdjdDNDQsMzkuMiw0Mi4yLDQxLDQwLDQxeiIvPiYjeGE7ICAgIDxnIGZpbGw9IiMzNzQ3NEYiPiYjeGE7ICAgICAgICA8cmVjdCB4PSIyNyIgeT0iMzQiIHdpZHRoPSIxMiIgaGVpZ2h0PSIyIi8+JiN4YTsgICAgICAgIDxyZWN0IHg9IjkiIHk9IjM0IiB3aWR0aD0iMTIiIGhlaWdodD0iMiIvPiYjeGE7ICAgICAgICA8cGF0aCBkPSJNMTgsMzVjMCwxLjEtMS4zLDItMywycy0zLTAuOS0zLTJIMTh6Ii8+JiN4YTsgICAgPC9nPiYjeGE7PC9zdmc+" vertex="1" parent="1">
          <mxGeometry x="530" y="254" width="26" height="26" as="geometry" />
        </mxCell>
        <mxCell id="DqOA63uAwXFSG6KGImlB-31" style="edgeStyle=none;rounded=0;orthogonalLoop=1;jettySize=auto;html=1;sourcePerimeterSpacing=5;endArrow=classic;endFill=1;targetPerimeterSpacing=5;startArrow=none;startFill=0;dashed=1;" edge="1" parent="1">
          <mxGeometry relative="1" as="geometry">
            <mxPoint x="556" y="280" as="sourcePoint" />
            <mxPoint x="675.1288836816689" y="281.2689484563741" as="targetPoint" />
          </mxGeometry>
        </mxCell>
        <mxCell id="DqOA63uAwXFSG6KGImlB-37" value="" style="ellipse;whiteSpace=wrap;html=1;fillColor=none;" vertex="1" parent="1">
          <mxGeometry x="600" y="250" width="30" height="50" as="geometry" />
        </mxCell>
        <mxCell id="DqOA63uAwXFSG6KGImlB-38" value="" style="endArrow=none;html=1;rounded=0;exitX=0.5;exitY=0;exitDx=0;exitDy=0;" edge="1" parent="1" source="DqOA63uAwXFSG6KGImlB-37">
          <mxGeometry width="50" height="50" relative="1" as="geometry">
            <mxPoint x="620" y="240" as="sourcePoint" />
            <mxPoint x="620" y="200" as="targetPoint" />
          </mxGeometry>
        </mxCell>
        <mxCell id="DqOA63uAwXFSG6KGImlB-39" value="不同比特率的编码流" style="text;whiteSpace=wrap;html=1;" vertex="1" parent="1">
          <mxGeometry x="560" y="180" width="140" height="40" as="geometry" />
        </mxCell>
        <mxCell id="DqOA63uAwXFSG6KGImlB-40" value="" style="endArrow=classic;startArrow=classic;html=1;entryX=0.5;entryY=1;entryDx=0;entryDy=0;exitX=0.287;exitY=1.167;exitDx=0;exitDy=0;exitPerimeter=0;curved=1;" edge="1" parent="1" source="DqOA63uAwXFSG6KGImlB-9" target="DqOA63uAwXFSG6KGImlB-8">
          <mxGeometry width="50" height="50" relative="1" as="geometry">
            <mxPoint x="708" y="350" as="sourcePoint" />
            <mxPoint x="440" y="160" as="targetPoint" />
            <Array as="points">
              <mxPoint x="540" y="340" />
              <mxPoint x="700" y="340" />
            </Array>
          </mxGeometry>
        </mxCell>
        <mxCell id="DqOA63uAwXFSG6KGImlB-41" value="编码比特率重新计算" style="text;whiteSpace=wrap;html=1;" vertex="1" parent="1">
          <mxGeometry x="560" y="340" width="140" height="40" as="geometry" />
        </mxCell>
        <mxCell id="DqOA63uAwXFSG6KGImlB-42" value="发送方&lt;br&gt;" style="text;whiteSpace=wrap;html=1;" vertex="1" parent="1">
          <mxGeometry x="522" y="230" width="42" height="20" as="geometry" />
        </mxCell>
        <mxCell id="DqOA63uAwXFSG6KGImlB-43" style="edgeStyle=none;rounded=0;orthogonalLoop=1;jettySize=auto;html=1;sourcePerimeterSpacing=5;endArrow=classic;endFill=1;targetPerimeterSpacing=5;startArrow=classic;startFill=1;dashed=1;" edge="1" parent="1">
          <mxGeometry relative="1" as="geometry">
            <mxPoint x="730" y="266.5" as="sourcePoint" />
            <mxPoint x="960" y="266.5" as="targetPoint" />
          </mxGeometry>
        </mxCell>
        <mxCell id="DqOA63uAwXFSG6KGImlB-45" value="" style="ellipse;shape=cloud;whiteSpace=wrap;html=1;align=center;fillColor=none;" vertex="1" parent="1">
          <mxGeometry x="750" y="227" width="100" height="80" as="geometry" />
        </mxCell>
        <mxCell id="DqOA63uAwXFSG6KGImlB-47" value="" style="strokeWidth=2;html=1;shape=mxgraph.flowchart.start_1;whiteSpace=wrap;fillColor=none;" vertex="1" parent="1">
          <mxGeometry x="850" y="230" width="40" height="90" as="geometry" />
        </mxCell>
        <mxCell id="DqOA63uAwXFSG6KGImlB-48" value="基于接收器带宽条件的转发流" style="text;whiteSpace=wrap;html=1;" vertex="1" parent="1">
          <mxGeometry x="760" y="170" width="190" height="20" as="geometry" />
        </mxCell>
        <mxCell id="DqOA63uAwXFSG6KGImlB-49" value="" style="endArrow=none;html=1;rounded=0;entryX=0.5;entryY=1;entryDx=0;entryDy=0;exitX=0.5;exitY=0;exitDx=0;exitDy=0;exitPerimeter=0;" edge="1" parent="1" source="DqOA63uAwXFSG6KGImlB-47" target="DqOA63uAwXFSG6KGImlB-48">
          <mxGeometry width="50" height="50" relative="1" as="geometry">
            <mxPoint x="390" y="210" as="sourcePoint" />
            <mxPoint x="440" y="160" as="targetPoint" />
          </mxGeometry>
        </mxCell>
        <mxCell id="DqOA63uAwXFSG6KGImlB-50" value="" style="shape=image;verticalLabelPosition=bottom;verticalAlign=top;imageAspect=0;aspect=fixed;image=data:image/svg+xml,PHN2ZyB4bWxucz0iaHR0cDovL3d3dy53My5vcmcvMjAwMC9zdmciIHZlcnNpb249IjEiIHZpZXdCb3g9IjAgMCA0OCA0OCIgZW5hYmxlLWJhY2tncm91bmQ9Im5ldyAwIDAgNDggNDgiPiYjeGE7ICAgIDxwYXRoIGZpbGw9IiM1NDZFN0EiIGQ9Ik00NCwzMEg0VjExYzAtMi4yLDEuOC00LDQtNGgzMmMyLjIsMCw0LDEuOCw0LDRWMzB6Ii8+JiN4YTsgICAgPHBhdGggZmlsbD0iIzY0QjVGNiIgZD0iTTQwLDI3SDhjLTAuNiwwLTEtMC40LTEtMVYxMWMwLTAuNiwwLjQtMSwxLTFoMzJjMC42LDAsMSwwLjQsMSwxdjE1QzQxLDI2LjYsNDAuNiwyNyw0MCwyN3oiLz4mI3hhOyAgICA8cGF0aCBmaWxsPSIjNzg5MDlDIiBkPSJNNDAsNDFIOGMtMi4yLDAtNC0xLjgtNC00di03aDQwdjdDNDQsMzkuMiw0Mi4yLDQxLDQwLDQxeiIvPiYjeGE7ICAgIDxnIGZpbGw9IiMzNzQ3NEYiPiYjeGE7ICAgICAgICA8cmVjdCB4PSIyNyIgeT0iMzQiIHdpZHRoPSIxMiIgaGVpZ2h0PSIyIi8+JiN4YTsgICAgICAgIDxyZWN0IHg9IjkiIHk9IjM0IiB3aWR0aD0iMTIiIGhlaWdodD0iMiIvPiYjeGE7ICAgICAgICA8cGF0aCBkPSJNMTgsMzVjMCwxLjEtMS4zLDItMywycy0zLTAuOS0zLTJIMTh6Ii8+JiN4YTsgICAgPC9nPiYjeGE7PC9zdmc+" vertex="1" parent="1">
          <mxGeometry x="970" y="200" width="26" height="26" as="geometry" />
        </mxCell>
        <mxCell id="DqOA63uAwXFSG6KGImlB-51" value="" style="shape=image;verticalLabelPosition=bottom;verticalAlign=top;imageAspect=0;aspect=fixed;image=data:image/svg+xml,PHN2ZyB4bWxucz0iaHR0cDovL3d3dy53My5vcmcvMjAwMC9zdmciIHZlcnNpb249IjEiIHZpZXdCb3g9IjAgMCA0OCA0OCIgZW5hYmxlLWJhY2tncm91bmQ9Im5ldyAwIDAgNDggNDgiPiYjeGE7ICAgIDxwYXRoIGZpbGw9IiM1NDZFN0EiIGQ9Ik00NCwzMEg0VjExYzAtMi4yLDEuOC00LDQtNGgzMmMyLjIsMCw0LDEuOCw0LDRWMzB6Ii8+JiN4YTsgICAgPHBhdGggZmlsbD0iIzY0QjVGNiIgZD0iTTQwLDI3SDhjLTAuNiwwLTEtMC40LTEtMVYxMWMwLTAuNiwwLjQtMSwxLTFoMzJjMC42LDAsMSwwLjQsMSwxdjE1QzQxLDI2LjYsNDAuNiwyNyw0MCwyN3oiLz4mI3hhOyAgICA8cGF0aCBmaWxsPSIjNzg5MDlDIiBkPSJNNDAsNDFIOGMtMi4yLDAtNC0xLjgtNC00di03aDQwdjdDNDQsMzkuMiw0Mi4yLDQxLDQwLDQxeiIvPiYjeGE7ICAgIDxnIGZpbGw9IiMzNzQ3NEYiPiYjeGE7ICAgICAgICA8cmVjdCB4PSIyNyIgeT0iMzQiIHdpZHRoPSIxMiIgaGVpZ2h0PSIyIi8+JiN4YTsgICAgICAgIDxyZWN0IHg9IjkiIHk9IjM0IiB3aWR0aD0iMTIiIGhlaWdodD0iMiIvPiYjeGE7ICAgICAgICA8cGF0aCBkPSJNMTgsMzVjMCwxLjEtMS4zLDItMywycy0zLTAuOS0zLTJIMTh6Ii8+JiN4YTsgICAgPC9nPiYjeGE7PC9zdmc+" vertex="1" parent="1">
          <mxGeometry x="970" y="274" width="26" height="26" as="geometry" />
        </mxCell>
        <mxCell id="DqOA63uAwXFSG6KGImlB-52" value="" style="shape=image;verticalLabelPosition=bottom;verticalAlign=top;imageAspect=0;aspect=fixed;image=data:image/svg+xml,PHN2ZyB4bWxucz0iaHR0cDovL3d3dy53My5vcmcvMjAwMC9zdmciIHZlcnNpb249IjEiIHZpZXdCb3g9IjAgMCA0OCA0OCIgZW5hYmxlLWJhY2tncm91bmQ9Im5ldyAwIDAgNDggNDgiPiYjeGE7ICAgIDxwYXRoIGZpbGw9IiMzNzQ3NEYiIGQ9Ik0xMiw0MFY4YzAtMi4yLDEuOC00LDQtNGgxNmMyLjIsMCw0LDEuOCw0LDR2MzJjMCwyLjItMS44LDQtNCw0SDE2QzEzLjgsNDQsMTIsNDIuMiwxMiw0MHoiLz4mI3hhOyAgICA8cGF0aCBmaWxsPSIjQkJERUZCIiBkPSJNMzIsN0gxNmMtMC42LDAtMSwwLjQtMSwxdjI5YzAsMC42LDAuNCwxLDEsMWgxNmMwLjYsMCwxLTAuNCwxLTFWOEMzMyw3LjQsMzIuNiw3LDMyLDd6Ii8+JiN4YTsgICAgPHJlY3QgeD0iMjEiIHk9IjQwIiBmaWxsPSIjNzg5MDlDIiB3aWR0aD0iNiIgaGVpZ2h0PSIyIi8+JiN4YTs8L3N2Zz4=" vertex="1" parent="1">
          <mxGeometry x="968" y="246" width="28" height="28" as="geometry" />
        </mxCell>
        <mxCell id="DqOA63uAwXFSG6KGImlB-53" value="" style="shape=image;verticalLabelPosition=bottom;verticalAlign=top;imageAspect=0;aspect=fixed;image=data:image/svg+xml,PHN2ZyB4bWxucz0iaHR0cDovL3d3dy53My5vcmcvMjAwMC9zdmciIHZlcnNpb249IjEiIHZpZXdCb3g9IjAgMCA0OCA0OCIgZW5hYmxlLWJhY2tncm91bmQ9Im5ldyAwIDAgNDggNDgiPiYjeGE7ICAgIDxwYXRoIGZpbGw9IiMzNzQ3NEYiIGQ9Ik0xMiw0MFY4YzAtMi4yLDEuOC00LDQtNGgxNmMyLjIsMCw0LDEuOCw0LDR2MzJjMCwyLjItMS44LDQtNCw0SDE2QzEzLjgsNDQsMTIsNDIuMiwxMiw0MHoiLz4mI3hhOyAgICA8cGF0aCBmaWxsPSIjQkJERUZCIiBkPSJNMzIsN0gxNmMtMC42LDAtMSwwLjQtMSwxdjI5YzAsMC42LDAuNCwxLDEsMWgxNmMwLjYsMCwxLTAuNCwxLTFWOEMzMyw3LjQsMzIuNiw3LDMyLDd6Ii8+JiN4YTsgICAgPHJlY3QgeD0iMjEiIHk9IjQwIiBmaWxsPSIjNzg5MDlDIiB3aWR0aD0iNiIgaGVpZ2h0PSIyIi8+JiN4YTs8L3N2Zz4=" vertex="1" parent="1">
          <mxGeometry x="960" y="330" width="28" height="28" as="geometry" />
        </mxCell>
        <mxCell id="DqOA63uAwXFSG6KGImlB-54" value="接收方" style="text;whiteSpace=wrap;html=1;" vertex="1" parent="1">
          <mxGeometry x="960" y="180" width="42" height="20" as="geometry" />
        </mxCell>
      </root>
    </mxGraphModel>
  </diagram>
</mxfile>
